<svg id="bbda9d06-994d-4321-ae1c-7478635d5858" data-name="Слой 1" xmlns="http://www.w3.org/2000/svg" viewBox="0 0 293.03 66.45"><title>Безымянный-2</title><path d="M-311.48,208.74h29.64v5.06h-24.47V230H-282v5.06h-24.26v20.32H-282v5.07h-29.43Z" transform="translate(311.48 -208)" fill="#0096f5"/><path d="M-277.34,222.21h5.24l12.83,27.88,12.69-27.88h5.27l-17.51,38.25h-.91Z" transform="translate(311.48 -208)" fill="#0096f5"/><path d="M-233.75,222.21h4.92v7a19.76,19.76,0,0,1,6.71-6,17.79,17.79,0,0,1,8.46-2,18.91,18.91,0,0,1,13.95,5.87,19.42,19.42,0,0,1,5.79,14.14,19.73,19.73,0,0,1-5.74,14.32,18.64,18.64,0,0,1-13.86,5.89,18.56,18.56,0,0,1-8.39-1.9,21.06,21.06,0,0,1-6.92-5.66v20.57h-4.92Zm19.69,3.76a14.46,14.46,0,0,0-10.75,4.46,15.23,15.23,0,0,0-4.37,11.1,15.74,15.74,0,0,0,2,7.83,14.19,14.19,0,0,0,5.57,5.51,15.43,15.43,0,0,0,7.67,2,14.46,14.46,0,0,0,7.45-2.06,15,15,0,0,0,5.56-5.74,15.56,15.56,0,0,0,2.07-7.73,15.5,15.5,0,0,0-2.05-7.72,14.71,14.71,0,0,0-5.53-5.67A14.75,14.75,0,0,0-214.06,226Z" transform="translate(311.48 -208)" fill="#0096f5"/><path d="M-146.6,222.21v38.25h-4.85v-6.58a21,21,0,0,1-6.94,5.66,18.75,18.75,0,0,1-8.42,1.9,18.65,18.65,0,0,1-13.87-5.89,19.74,19.74,0,0,1-5.75-14.32,19.39,19.39,0,0,1,5.8-14.14,18.94,18.94,0,0,1,14-5.87,18,18,0,0,1,8.52,2,19.28,19.28,0,0,1,6.7,6v-7ZM-166.27,226a14.79,14.79,0,0,0-7.58,2,14.71,14.71,0,0,0-5.53,5.67,15.51,15.51,0,0,0-2.06,7.72,15.56,15.56,0,0,0,2.07,7.73,15.14,15.14,0,0,0,5.57,5.74,14.55,14.55,0,0,0,7.5,2.06,15.33,15.33,0,0,0,7.65-2,14.32,14.32,0,0,0,5.57-5.51,15.74,15.74,0,0,0,2-7.83,15.23,15.23,0,0,0-4.37-11.1A14.52,14.52,0,0,0-166.27,226Z" transform="translate(311.48 -208)" fill="#0096f5"/><path d="M-134.68,260.46V208.74h1.13l34.41,39.64V208.74H-94v51.72H-95.2l-34.14-39.16v39.16Z" transform="translate(311.48 -208)" fill="#0096f5"/><path d="M-50.06,247.77l4.15,2.18a22.63,22.63,0,0,1-4.71,6.46,18.91,18.91,0,0,1-6,3.75,21.12,21.12,0,0,1-7.57,1.28q-9.36,0-14.64-6.13a20.75,20.75,0,0,1-5.27-13.87,20.47,20.47,0,0,1,4.46-13,18.31,18.31,0,0,1,15.17-7.24,18.88,18.88,0,0,1,15.62,7.42,20.72,20.72,0,0,1,4.23,13.08H-79.06a15.53,15.53,0,0,0,4.26,10.92,13.54,13.54,0,0,0,10.17,4.27,16.25,16.25,0,0,0,5.68-1,14.93,14.93,0,0,0,4.7-2.7A23,23,0,0,0-50.06,247.77Zm0-10.31a16.32,16.32,0,0,0-2.87-6.29,13.59,13.59,0,0,0-5-3.8,15.23,15.23,0,0,0-6.51-1.44,14.05,14.05,0,0,0-9.68,3.62,16.42,16.42,0,0,0-4.47,7.91Z" transform="translate(311.48 -208)" fill="#0096f5"/><path d="M-31.18,208h4.92v14.21h7.81v4.25h-7.81v34h-4.92v-34h-6.71v-4.25h6.71Z" transform="translate(311.48 -208)" fill="#0096f5"/></svg>